<?xml version="1.0" encoding="UTF-8"?>
<svg width="48" height="48" version="1.1" viewBox="0 0 48 48" xmlns="http://www.w3.org/2000/svg" xmlns:cc="http://creativecommons.org/ns#" xmlns:dc="http://purl.org/dc/elements/1.1/" xmlns:rdf="http://www.w3.org/1999/02/22-rdf-syntax-ns#">
 <metadata>
  <rdf:RDF>
   <cc:Work rdf:about="">
    <dc:format>image/svg+xml</dc:format>
    <dc:type rdf:resource="http://purl.org/dc/dcmitype/StillImage"/>
    <dc:title/>
   </cc:Work>
  </rdf:RDF>
 </metadata>
 <path d="m44 24c0-11.046-8.9541-20-20-20s-20 8.955-20 20 8.9541 20 20 20 20-8.955 20-20z" fill="#d45500" stroke-width=".022157"/>
 <g transform="matrix(.64095 -.63988 .64095 .63988 38.694 1.7632)" fill="#6c5353">
  <rect x="-40.427" y="-8.3595" width="4" height="28.586" rx="0" ry="1.9819" stroke-width="1.2101"/>
  <g stroke-width="1.0855">
   <rect transform="rotate(90)" x="-8.3595" y="17.427" width="4" height="23" rx="0" ry="2"/>
   <rect transform="rotate(90)" x="16.226" y="17.427" width="4" height="23" rx="0" ry="2"/>
   <rect transform="rotate(90)" x="3.9332" y="17.427" width="4" height="23" rx="0" ry="2"/>
  </g>
  <g stroke-width=".89501">
   <rect transform="matrix(.86603 -.5 -.5 -.86603 0 0)" x="-15.446" y="6.6094" width="4" height="10.5" ry="2"/>
   <rect transform="rotate(30)" x="-16.047" y="5.5685" width="4" height="10.5" ry="2"/>
   <rect transform="matrix(.86603 -.5 -.5 -.86603 0 0)" x="-21.939" y="-4.6372" width="4" height="10.5" ry="2"/>
   <rect transform="rotate(30)" x="-9.5537" y="16.815" width="4" height="10.5" ry="2"/>
  </g>
 </g>
</svg>
